<svg xmlns="http://www.w3.org/2000/svg" width="274" height="251" viewBox="0 0 274 251">
    <g fill="none" fill-rule="evenodd">
        <g stroke="#A0A3B3" transform="translate(129 196)">
            <path d="M12.798 36.07c.357.387.553.895.553 1.42v15.463c0 .93 1.123 1.403 1.788.749l4.313-4.943c.578-.693.896-1.036.896-1.722v-9.544c0-.525.2-1.032.553-1.42L33.279 22.64c.927-1.007.213-2.641-1.158-2.641H1.578C.207 20-.51 21.63.42 22.641L12.798 36.07z"/>
            <circle cx="16.5" cy="7.5" r="7.5"/>
        </g>
        <g fill="#A0A3B3">
            <path d="M178.453 15.844c1.152.247 2.188.787 3.258 1.252.454.197 1.485.344 1.663.812.149.393-.659 2.002-.784 2.378-.432 1.294-.866 2.587-1.299 3.881-.265.792-.53 1.585-.793 2.378-.438 1.318-.917 1.414-2.263.962-.815-.273-2.605-.526-3.47-1.194.346-.14.68-.31.999-.513.455-.289.076-1.043-.383-.751-.347.22-.711.397-1.09.539-.003-.02-.011-.038-.012-.058-.028-.351.076-.84.226-1.336l1.708-.721c.501-.212.116-.962-.383-.752l-.952.402c.085-.216.167-.415.234-.575.075-.239.16-.473.24-.709a24.91 24.91 0 0 1 2.13-.907c.51-.188.121-.938-.383-.751-.452.167-.898.351-1.34.545.113-.298.227-.595.344-.891l1.85-.723c.506-.197.119-.947-.383-.751l-1.057.412c.068-.176.137-.352.203-.53a9.1 9.1 0 0 0 .145-.428l1.584-.529c.51-.17.336-.996-.18-.824l-1.098.366c.046-.137.094-.273.148-.405.301-.737.321-.754 1.138-.579zm-1.038 12.554c1.472.5 3.075 1.225 3.828-.529.92-2.138 1.507-4.511 2.245-6.72.357-1.07 1.77-3.372.598-4.314-.668-.536-1.956-.796-2.746-1.156-.772-.353-1.55-.614-2.365-.852-1.424-.416-2.153-.566-2.656.96-.71 2.153-1.596 4.25-2.277 6.414-.408.967-1.222 2.91-.94 3.94.423 1.54 3.128 1.855 4.313 2.257zM190.38 14.108c.738-.578 3.346.91 4.023 1.217.769.35 1.705.358 1.779 1.16.067.713-.701 2.119-.921 2.784l-2.077 6.288-1.016 3.077c-.179.541-.431 2.307-.894 2.66-.464.356-3.02-.488-4.4-1.022l1.44-.462c.511-.165.338-.992-.18-.825l-2.351.756c-.262-.224-.334-.49-.311-.785a50.805 50.805 0 0 0 2.858-1.084c.502-.21.116-.96-.383-.752-.73.304-1.47.584-2.214.852.053-.156.106-.316.15-.478.043-.166.088-.33.132-.494a15.5 15.5 0 0 1 3.039-1.333c.513-.162.34-.988-.18-.825a16.69 16.69 0 0 0-2.538 1.03c.085-.282.179-.561.278-.84.842-.47 1.715-.878 2.619-1.218.508-.19.12-.94-.384-.751-.622.233-1.228.501-1.822.797.138-.423.278-.846.424-1.267a11.355 11.355 0 0 1 2.402-.96c.522-.141.346-.966-.18-.824-.627.169-1.235.39-1.825.652l.357-.984a11.953 11.953 0 0 1 2.463-1.026c.518-.149.344-.975-.18-.824-.64.184-1.26.418-1.862.695l.18-.488.188-.524a9.043 9.043 0 0 1 2.284-1.07c.516-.156.342-.981-.18-.824-.578.175-1.133.402-1.667.674.09-.256.178-.513.265-.77a10.77 10.77 0 0 1 1.94-.794c.518-.153.343-.98-.18-.825-.495.147-.979.327-1.45.535.094-.448.22-1.008.373-1.128zm-6.123 15.399c.133 1.38 1.88 1.643 2.94 1.958 1.102.326 3.25 1.476 4.407 1.065 1.154-.41 1.483-3.091 1.813-4.089l2.365-7.161 1.152-3.486c.177-.537.659-1.438.494-2.037-.289-1.047-2.49-1.441-3.336-1.826-.877-.4-2.996-1.43-4.012-1.088-1.08.363-1.36 2.878-1.682 3.798-.868 2.474-1.838 4.913-2.618 7.417-.414 1.011-.687 2.035-.968 3.088-.182.684-.626 1.624-.555 2.361zM204.042 11.098c.477-.779 1.927-.071 2.73.232.663.249 2.378.766 2.86 1.215.547.51.177 1.003-.073 1.76l-1.81 5.468c-1.4 4.237-2.8 8.475-4.203 12.712-.19.58-.36 1.924-.774 2.374-.67.727-2.534-.187-3.284-.456-.434-.156-.964-.28-1.428-.46.212-.096.424-.197.628-.313.471-.267.09-1.02-.383-.752a7.821 7.821 0 0 1-1.11.515 1.04 1.04 0 0 1-.158-.261c.515-.3 1.04-.58 1.58-.833.492-.232.108-.983-.384-.752-.412.194-.815.406-1.213.626.04-.257.093-.518.159-.784l1.783-.7c.506-.199.119-.949-.383-.751l-1.108.434c.053-.163.109-.324.166-.485a65.754 65.754 0 0 0 2.627-.946c.507-.195.12-.945-.383-.751a62.82 62.82 0 0 1-1.862.677c.1-.254.2-.503.296-.737.039-.126.082-.252.121-.38a17.15 17.15 0 0 1 2.143-.788c.518-.152.344-.978-.18-.825-.552.162-1.092.358-1.627.569.092-.287.181-.574.276-.86.61-.212 1.219-.425 1.822-.657.507-.194.12-.945-.383-.751-.365.14-.735.264-1.102.397l.325-.954c.693-.33 1.405-.61 2.14-.83.518-.154.343-.98-.179-.825-.543.162-1.071.36-1.593.577.162-.467.326-.935.49-1.402a15.037 15.037 0 0 1 1.526-.62c.217-.073.371-.261.322-.502-.042-.204-.287-.395-.502-.322-.326.11-.648.23-.966.357l.229-.657a18.967 18.967 0 0 1 2.298-.647c.53-.114.352-.939-.18-.824-.6.129-1.188.29-1.77.473l.329-.944.036-.107 1.762-.777c.498-.22.113-.97-.383-.751l-1.006.443.413-1.2c.485-.254.982-.482 1.498-.67.216-.078.277-.38.185-.567-.112-.225-.355-.261-.568-.184-.25.09-.495.195-.738.302l.35-1.041c.649-.224 1.29-.468 1.92-.743.498-.218.113-.969-.384-.752-.406.178-.818.34-1.233.495.086-.376.171-.797.336-1.065zm-8.15 21.151c-.211.884-.28 1.445.47 2.058.749.61 1.883.844 2.778 1.166 1.085.389 2.3.87 3.481.745 1.56-.164 1.743-2.622 2.166-3.9l2.603-7.872c.879-2.658 1.757-5.317 2.637-7.975.373-1.129 1.865-3.745.712-4.672-.803-.644-2.257-.97-3.223-1.38-.878-.372-2.162-.892-3.134-.938-1.548-.073-1.652 2.149-2.04 3.315-1.666 5.005-3.545 9.946-5.097 14.987-.585 1.43-.995 2.963-1.353 4.466z"/>
            <path d="M203.527 38.33c-5.34-1.509-10.623-3.2-15.863-5.022-4.97-1.728-9.86-3.71-14.892-5.249-.515-.157-1.755-.326-2.061-.697-.37-.446.04-1.592.164-2.047.309-1.137.63-2.27.967-3.399.667-2.239 1.391-4.46 2.139-6.673 1.525-4.517 3.088-9.018 4.47-13.581.209-.693-.86-1.043-1.07-.348-1.52 5.017-3.268 9.954-4.922 14.928a167.893 167.893 0 0 0-2.214 7.14c-.41 1.443-1.72 3.811-.154 4.92.804.568 1.987.72 2.915 1.002 1.304.395 2.585.823 3.863 1.299 2.8 1.04 5.606 2.068 8.423 3.065 5.905 2.088 11.86 4.028 17.887 5.733.695.196 1.046-.873.348-1.07"/>
        </g>
        <g fill="#A0A3B3">
            <path d="M194.073 161.122c-2.348 1.098-7.652.236-10.234.221-13.038-.076-26.147-.472-39.162-.301-13.605.178-27.19 1.019-40.821.713-2.638-.059-7.92.566-8.201-2.859-.181-2.186 2.043-3.565 3.528-4.854 4.531-3.933 9.712-7.06 14.555-10.58.134-.098.238-.21.329-.327 2.357.391 5.045.238 7.379.116 9.481-.493 19.01-.344 28.507-.649 4.711-.152 9.423-.251 14.137-.182 4.72.069 9.895.668 14.628.369.028.025.048.052.078.076 4.858 3.914 9.878 8.055 14.511 12.221 1.789 1.61 4.809 4.144.766 6.036zm-83.298-32.362c-.147-4.574-.27-9.154-.129-13.731.13-4.227.287-8.355.188-12.582-.062-2.711-.045-6.299 3.181-7.347 1.746-.568 4.533-.028 6.351-.038 8.333-.049 16.666-.092 24.999-.143 5.368.197 10.781.306 16.147.006 4.026-.226 18.367-1.612 19.853 3.269.526 1.73.099 4.185.092 6.005-.014 4.034.1 8.06.276 12.09.14 3.215.3 6.429.355 9.647.035 2.01.036 4.02-.014 6.029-.073 2.885.388 5.253-2.198 6.794-2.905 1.731-8.121.758-11.492.738-3.732-.023-7.459-.128-11.191-.075-7.314.103-14.618.512-21.931.589-3.521.038-7.047-.099-10.564.05-3.193.135-8.733 1.436-11.719-.198-3.226-1.765-2.108-8.067-2.204-11.103zm80.502 20.937c-3.209-2.419-6.032-5.258-9.077-7.86 4.048-2.754 2.955-10.94 2.903-15.074-.11-8.795-.435-17.613-.653-26.406-.063-2.528-.043-5.448-2.354-7.118-2.539-1.838-7.816-1.099-10.88-1.342-8.553-.678-17.253.339-25.851.022-9.676.06-19.353.107-29.029.166-2.636.016-5.099-.261-6.831 2.027-2.211 2.92-1.704 7.292-1.567 10.676.434 10.745-.648 21.522.089 32.307.165 2.418 1.189 3.919 2.672 4.854-4.015 2.843-8.142 5.533-11.985 8.612-2.842 2.276-6.071 4.422-6.059 8.335.009 3.443 1.603 5.205 4.909 5.591 6.555.763 13.483.535 20.061.297 15.239-.551 30.438-.083 45.662-.502 6.595-.181 13.18.003 19.774.056 4.03.032 11.317 1.459 14.407-1.896 1.87-2.032 1.962-4.849.428-6.953-1.711-2.348-4.328-4.065-6.619-5.792z"/>
            <path d="M174.301 101.932c.385 10.351.47 20.675.708 31.015-9.45-.491-19.173-.031-28.607.371-9.385.4-18.832.402-28.229.549a340962.9 340962.9 0 0 0-.49-31.977c18.876-.175 37.749.245 56.618.042zm-57.235 34.2c9.76-.165 19.583-.149 29.336-.564 9.817-.419 19.948-.911 29.756-.317.598.036 1.14-.544 1.125-1.125-.27-11.112-.33-22.202-.768-33.327-.024-.602-.496-1.133-1.125-1.125-19.613.236-39.229-.234-58.849-.027a1.042 1.042 0 0 0-.634.223.983.983 0 0 0-.491.902l.525 34.235c.008.6.508 1.135 1.125 1.125zM136.625 156.258c.282-.93.601-1.862.747-2.764l.373-.914c.035-.004.06-.006.098-.012 2.941-.208 5.914-.226 8.861-.298 2.619-.064 5.378-.292 7.99.065l.047.007.403 1.037c.142.8.486 1.678.824 2.52-6.295.807-12.983.419-19.343.359zm19.985-5.294c-.193-.497-.548-.789-1.085-.826-6.19-.42-12.337.158-18.526.19-.545.003-.892.358-1.085.826-.817 1.99-1.405 3.783-1.83 5.917-.049.247-.019.467.058.658.122.42.46.766 1.027.766 7.411-.004 15.32.563 22.66-.587.57-.09.976-.86.786-1.384-.673-1.856-1.292-3.717-2.005-5.56zM145.469 98.382c1.448 0 1.45-2.25 0-2.25-1.448 0-1.45 2.25 0 2.25"/>
            <path d="M119.493 105.768a57.865 57.865 0 0 0 2.731 3.937c.369.489.967.73 1.539.404.48-.273.77-1.056.403-1.539a57.623 57.623 0 0 1-2.73-3.938c-.773-1.22-2.721-.092-1.943 1.136M126.684 109.455c.995 1.055 2.584-.538 1.591-1.591a6202.348 6202.348 0 0 0-3.52-3.73c-.995-1.056-2.584.538-1.591 1.591l3.52 3.73"/>
        </g>
        <g fill="#A0A3B3">
            <path d="M272.092 100.06c1.004 3.056-1.543 4.565-3.829 5.86-3.668 2.078-7.167 4.48-10.974 6.307-1.534.736-3.5 1.328-5.037.204-.93-.678-1.57-1.975-2.17-2.928-1.797-2.845-3.372-5.827-4.993-8.773a174.348 174.348 0 0 0-5.533-9.79 43.385 43.385 0 0 1-2.773-5.312c-.92-2.12-2.6-5.192-.842-7.321 1.156-1.4 3.368-2.361 4.921-3.295a83.25 83.25 0 0 1 4.875-2.732c1.56-.801 3.224-1.736 4.937-2.153 2.726-.664 4.202.687 5.6 2.88 4.533 7.114 8.926 14.35 13.018 21.727.938 1.69 2.196 3.486 2.8 5.327zm-1.916-6.284a309.488 309.488 0 0 0-4.283-7.431 536.234 536.234 0 0 0-8.536-13.938c-2.027-3.189-4.4-4.482-8.121-3.106-4.163 1.54-8.087 4.008-11.816 6.38-1.674 1.065-3.346 2.213-3.529 4.357-.18 2.1.995 4.32 1.809 6.19 2.283 5.25 5.649 10.03 8.306 15.102 1.814 3.299 3.548 6.682 5.662 9.803 1.32 1.95 2.622 3.286 5.173 3.236 1.767-.033 3.75-1.384 5.224-2.186 2.63-1.433 5.15-3.059 7.735-4.568 2.948-1.72 7.015-3.792 5.49-7.93-.754-2.046-2.056-4.008-3.114-5.909z"/>
            <path d="M243.263 77.21a99.777 99.777 0 0 1 4.258-2.492c.523-.289.074-1.101-.45-.812a99.777 99.777 0 0 0-4.258 2.492c-.507.313-.06 1.127.45.812M249.309 73.702l.01-.038c.166-.575-.727-.831-.892-.256a1.813 1.813 0 0 1-.011.039c-.165.575.728.831.893.255M250.98 72.846a.9.9 0 0 0 .01-.039c.166-.574-.727-.83-.892-.256a1.84 1.84 0 0 1-.01.039c-.165.575.727.832.892.256M264.25 106.053c-.13.613-1.65 1.337-2.176 1.638-.372.213-1.895 1.148-2.165.944-1.042-.782 1.666-2.019 2.058-2.23.356-.204 2.551-1.622 2.283-.352zm-2.734-.46c-1.139.615-3.479 1.58-2.725 3.275.696 1.564 3.004.07 3.913-.473.872-.52 3.124-1.624 2.458-2.97-.858-1.732-2.526-.473-3.646.167zM260.728 104.12c-2.946 1.844-6.028 3.424-9.03 5.169-2.548-4.336-4.737-8.859-7.081-13.304-2.202-4.176-4.885-8.086-6.954-12.329 5.85-3.146 11.526-6.604 17.299-9.879 5.117 8.313 9.812 16.896 14.931 25.21-3.032 1.76-6.188 3.27-9.165 5.133zm-5.321-31.326c-.016-.012-.033-.02-.05-.03a.41.41 0 0 0-.459-.02c-6.035 3.412-11.956 7.04-18.075 10.312a.41.41 0 0 0-.228.423v.02c.001.014.007.028.01.042.007.049.013.096.037.146 2.093 4.406 4.888 8.434 7.163 12.748 2.418 4.585 4.666 9.254 7.318 13.712a.448.448 0 0 0 .17.165.402.402 0 0 0 .462.016c3.124-1.836 6.352-3.465 9.423-5.396 3.11-1.955 6.425-3.508 9.585-5.374a.47.47 0 0 0 .154-.148c.104-.126.14-.3.027-.483-5.297-8.568-10.12-17.434-15.415-26.002a.483.483 0 0 0-.122-.13z"/>
            <path d="M242.787 83.447a9.433 9.433 0 0 0-.657 3.374c-.006.598.922.62.929.021a8.733 8.733 0 0 1 .62-3.139c.22-.556-.674-.808-.892-.256M244.728 82.788l-.514 2.549c-.118.583.774.843.892.256l.514-2.549c.118-.583-.774-.842-.892-.256"/>
        </g>
        <g stroke="#A0A3B3">
            <path d="M44.542 89.669C44.542 78.767 35.776 70 25 70 14.225 70 5.458 78.767 5.458 89.542 2.813 89.8.705 91.968.705 94.646s2.108 4.845 4.753 4.977l.25.026h5.3V89.643c0-7.815 6.278-14.092 13.992-14.092 7.714 0 13.991 6.277 13.991 13.99V99.65h2.857c-2.832 6.114-8.68 10.547-15.633 11.366a2.944 2.944 0 0 0-2.325-1.147 2.96 2.96 0 0 0 0 5.92c1.077 0 2.01-.58 2.53-1.44 8.786-.961 16.089-6.87 19.1-14.87 2.166-.548 3.775-2.495 3.775-4.832 0-2.678-2.108-4.845-4.753-4.977zM55.757 190.596c-.714-.432-1.655-.254-2.364.454l-3.466 3.465c-4.568-2.534-8.273-6.23-10.498-10.477l3.631-3.473.082-.096c.369-.554.67-1.425.407-2.206-.662-1.987-.999-4-.999-5.983 0-1.343-.937-2.28-2.279-2.28h-5.99c-1.344 0-2.281.937-2.281 2.28 0 16.359 13.309 29.668 29.669 29.668 1.343 0 2.28-.938 2.28-2.279v-5.82c0-1.343-.937-2.28-2.28-2.28-2.126 0-4.115-.328-5.912-.973zM256.604 204.45l10.367-14.398 2.399-3.333c.575-.8.004-1.915-.98-1.915H252.79l3.813-11.606a.915.915 0 0 0-.333-1.026.915.915 0 0 0-1.276.207l-10.365 14.398-2.4 3.333a1.21 1.21 0 0 0 .982 1.916H258.81l-3.815 11.605a.914.914 0 0 0 1.61.818z"/>
        </g>
        <path stroke="#A0A3B3" d="M83.566 31.09l-3.974-13.861a2.148 2.148 0 0 1 1.476-2.655l20.68-5.93a2.148 2.148 0 0 1 2.658 1.47l3.383 11.798a2.148 2.148 0 0 1-1.476 2.655L83.566 31.09zM85.34 37.278l-1.774-6.188 6.203-1.778c-3.425.982-5.409 4.548-4.429 7.966"/>
        <path fill="#A0A3B3" d="M100.765 15.623L85.6 19.97a1.074 1.074 0 0 1-1.33-.735 1.074 1.074 0 0 1 .738-1.327l15.165-4.349a1.074 1.074 0 0 1 1.33.735 1.074 1.074 0 0 1-.738 1.328M98.206 22.309l-11.03 3.163a1.074 1.074 0 0 1-1.329-.735 1.074 1.074 0 0 1 .738-1.328l11.03-3.162a1.074 1.074 0 0 1 1.329.735 1.074 1.074 0 0 1-.738 1.327"/>
        <g stroke="#A0A3B3" transform="translate(87 55)">
            <path d="M3 12l3 7H0zM20.5 11.5h8v1h-8z"/>
            <circle cx="56.5" cy="2.5" r="2.5"/>
        </g>
        <g stroke="#A0A3B3" transform="rotate(-108 151.425 -.127)">
            <path d="M21 16l3 7h-6zM38.5 15.5h8v1h-8z"/>
            <circle cx="74.5" cy="6.5" r="2.5"/>
            <circle cx="3.006" cy="3.248" r="2.5"/>
        </g>
        <g stroke="#A0A3B3" transform="rotate(-109 88.518 49.325)">
            <path d="M3.222.89l3 7h-6zM1.5 25.5h8v1h-8z"/>
            <circle cx="37.5" cy="16.5" r="2.5"/>
        </g>
        <g fill="#A0A3B3">
            <path d="M150.56 115.392v-1.855c0-2.644-2.373-4.793-5.287-4.793-2.917 0-5.29 2.15-5.29 4.793v1.855a2.391 2.391 0 0 0-1.983 2.353v6.459a2.392 2.392 0 0 0 2.389 2.388h9.766a2.392 2.392 0 0 0 2.388-2.388v-6.461a2.39 2.39 0 0 0-1.984-2.351zm-9.917-1.855c0-2.279 2.078-4.131 4.63-4.131 2.55 0 4.627 1.852 4.627 4.131v1.817h-9.257v-1.817zm11.24 10.667c0 .952-.776 1.728-1.728 1.728h-9.766a1.73 1.73 0 0 1-1.727-1.728v-6.461c0-.952.775-1.727 1.727-1.727h9.766a1.73 1.73 0 0 1 1.728 1.727v6.46z"/>
            <path d="M145.273 117.998c-.73 0-1.324.594-1.324 1.324v1.981c0 .73.594 1.324 1.324 1.324.727 0 1.321-.594 1.321-1.324v-1.981c0-.73-.594-1.324-1.321-1.324zm.66 3.305a.662.662 0 0 1-.66.662.663.663 0 0 1-.662-.662v-1.981c0-.365.297-.662.662-.662.362 0 .66.297.66.662v1.981z"/>
        </g>
    </g>
</svg>
